<mxfile host="app.diagrams.net" modified="2024-05-18T10:17:23.158Z" agent="Mozilla/5.0 (Windows NT 10.0; Win64; x64) AppleWebKit/537.36 (KHTML, like Gecko) Chrome/124.0.0.0 Safari/537.36" version="24.4.4" etag="2denjmtJEl4thAD-Ttpr" type="github">
  <diagram name="Страница — 1" id="stip9UstteszHj4OPxRw">
    <mxGraphModel>
      <root>
        <mxCell id="0" />
        <mxCell id="1" parent="0" />
      </root>
    </mxGraphModel>
  </diagram>
</mxfile>
